<svg width="800" height="800" viewBox="0 -1.1 16 16" xmlns="http://www.w3.org/2000/svg"><g data-name="Layer 2"><path d="m9.85 6.85 3.5-3.5a.49.49 0 0 0-.7-.7l-3.5 3.5A.53.53 0 0 0 9 6.3 2 2 0 0 0 8 6a2 2 0 1 0 2 2 2 2 0 0 0-.3-1 .53.53 0 0 0 .15-.15ZM8 9a1 1 0 1 1 1-1 1 1 0 0 1-1 1Zm8-1.31a8 8 0 0 1-2.3 6 .52.52 0 0 1-.71 0l-1.3-1.31a.49.49 0 0 1 .7-.7l.94.93A7 7 0 0 0 15 8h-1.5a.5.5 0 0 1 0-1h1.42a7.23 7.23 0 0 0-.58-2 .5.5 0 1 1 .9-.42 7.83 7.83 0 0 1 .7 2.66.45.45 0 0 1 0 .41Zm-11.61 4a.48.48 0 0 1 0 .7l-1.3 1.31a.52.52 0 0 1-.71 0A8 8 0 0 1 0 8v-.4a.44.44 0 0 1 0-.1.41.41 0 0 1 0-.16A7.95 7.95 0 0 1 7.91 0H8a.4.4 0 0 1 .15 0 7.84 7.84 0 0 1 3.23.73.49.49 0 0 1 .24.66.49.49 0 0 1-.66.24 7.12 7.12 0 0 0-2.46-.58V2.5a.5.5 0 0 1-1 0V1a7 7 0 0 0-4.45 2 6.93 6.93 0 0 0-2 4H2.5a.5.5 0 0 1 0 1H1a6.92 6.92 0 0 0 1.71 4.58l.94-.93a.48.48 0 0 1 .7 0Z" data-name="Layer 1"/></g></svg>