<svg width="800" height="800" viewBox="0 0 24 24" xmlns="http://www.w3.org/2000/svg"><g fill="none" fill-rule="evenodd"><path fill="#FFF" fill-opacity=".01" fill-rule="nonzero" d="M0 0h24v24H0z"/><path d="M9.142 21.586a9.997 9.997 0 0 1-4.348-2.653 3 3 0 0 0-2.59-4.919A10.045 10.045 0 0 1 2.457 9H2.5a3 3 0 0 0 2.692-4.325 9.984 9.984 0 0 1 4.134-2.313 3 3 0 0 0 5.348 0 9.984 9.984 0 0 1 4.134 2.313A3 3 0 0 0 21.542 9a10.045 10.045 0 0 1 .255 5.015 3 3 0 0 0-2.59 4.919 9.997 9.997 0 0 1-4.349 2.652 3.001 3.001 0 0 0-5.716 0Z" stroke="#212121" stroke-linejoin="round" stroke-width="1.5"/><path d="M12 15.5a3.5 3.5 0 1 0 0-7 3.5 3.5 0 0 0 0 7Z" stroke="#212121" stroke-linejoin="round" stroke-width="1.5"/></g></svg>