<svg xmlns="http://www.w3.org/2000/svg" viewBox="0 0 512 512" style="enable-background:new 0 0 512 512" xml:space="preserve"><path d="M512 194.313v-37.012a9.223 9.223 0 0 0-2.708-6.54l-.002-.004-74.024-74.024a9.252 9.252 0 0 0-6.542-2.709H181.976a9.253 9.253 0 0 0-9.253 9.253 9.253 9.253 0 0 0 9.253 9.253h242.915l55.518 55.518H31.591L87.109 92.53h57.855a9.253 9.253 0 0 0 9.253-9.253 9.253 9.253 0 0 0-9.253-9.253H83.277a9.253 9.253 0 0 0-6.542 2.709L2.711 150.757l-.001.003A9.217 9.217 0 0 0 0 157.301v37.012c0 14.796 4.559 28.544 12.337 39.925v194.485a9.253 9.253 0 0 0 9.253 9.253h468.82a9.253 9.253 0 0 0 9.253-9.253V280.675a9.253 9.253 0 0 0-9.253-9.253 9.253 9.253 0 0 0-9.253 9.253V419.47H191.229V293.012a9.253 9.253 0 0 0-9.253-9.253H70.94a9.253 9.253 0 0 0-9.253 9.253V419.47H30.843V252.794c11.414 7.852 25.225 12.459 40.096 12.459 26.396 0 49.47-14.49 61.687-35.935 12.216 21.445 35.291 35.935 61.687 35.935s49.47-14.49 61.687-35.935c12.216 21.445 35.291 35.935 61.687 35.935s49.47-14.49 61.687-35.935c12.216 21.445 35.291 35.935 61.687 35.935 39.116 0 70.939-31.823 70.939-70.94zM80.193 302.265h92.53V419.47h-92.53V302.265zm360.867-55.518c-28.913 0-52.434-23.521-52.434-52.434a9.253 9.253 0 0 0-9.253-9.253 9.253 9.253 0 0 0-9.253 9.253c0 28.913-23.521 52.434-52.434 52.434-28.913 0-52.434-23.521-52.434-52.434 0-5.111-4.143-9.253-9.253-9.253s-9.253 4.142-9.253 9.253c0 28.913-23.521 52.434-52.434 52.434-28.913 0-52.434-23.521-52.434-52.434a9.253 9.253 0 0 0-9.253-9.253 9.253 9.253 0 0 0-9.253 9.253c0 28.913-23.521 52.434-52.434 52.434s-52.434-23.521-52.434-52.434v-27.759h474.988v27.759c.002 28.913-23.519 52.434-52.432 52.434z"/><path d="M144.964 345.446a9.253 9.253 0 0 0-9.253 9.253v12.337c0 5.111 4.143 9.253 9.253 9.253s9.253-4.142 9.253-9.253v-12.337a9.252 9.252 0 0 0-9.253-9.253zm123.373 24.674a9.253 9.253 0 0 0-9.253 9.253 9.253 9.253 0 0 0 9.253 9.253H441.06a9.253 9.253 0 0 0 9.253-9.253v-86.361a9.253 9.253 0 0 0-9.253-9.253H231.325a9.253 9.253 0 0 0-9.253 9.253v86.361a9.253 9.253 0 0 0 9.253 9.253 9.253 9.253 0 0 0 9.253-9.253v-77.108h191.229v67.855h-163.47z"/></svg>